<?xml version="1.0" standalone="no"?>
<!DOCTYPE svg PUBLIC "-//W3C//DTD SVG 20010904//EN"
 "http://www.w3.org/TR/2001/REC-SVG-20010904/DTD/svg10.dtd">
<svg version="1.0" xmlns="http://www.w3.org/2000/svg"
 width="512.000000pt" height="512.000000pt" viewBox="0 0 512.000000 512.000000"
 preserveAspectRatio="xMidYMid meet">
<metadata>
Created by potrace 1.16, written by Peter Selinger 2001-2019
</metadata>
<g transform="translate(0.000000,512.000000) scale(0.100000,-0.100000)"
fill="#000000" stroke="none">
<path d="M338 5101 c-146 -47 -274 -175 -318 -319 -20 -63 -20 -100 -20 -2221
0 -1945 2 -2163 16 -2212 46 -156 177 -287 333 -333 49 -14 182 -16 1208 -16
l1153 0 0 1055 0 1055 -220 0 -220 0 0 425 0 425 204 0 204 0 4 268 c5 246 7
275 30 362 68 256 203 429 413 530 183 88 265 99 753 100 l372 0 -2 -372 -3
-373 -280 -5 c-385 -7 -368 7 -373 -307 l-3 -203 324 0 c178 0 326 -2 328 -5
3 -2 -6 -102 -18 -222 -13 -120 -31 -308 -41 -418 l-17 -200 -315 -5 -315 -5
-3 -1052 -2 -1053 593 0 c650 0 646 0 752 60 60 35 153 128 188 190 61 108 57
-52 57 2310 0 1944 -2 2162 -16 2211 -46 156 -177 287 -333 333 -49 14 -267
16 -2215 15 -2068 0 -2163 -1 -2218 -18z"/>
</g>
</svg>
